<?xml version="1.0" standalone="no"?>
<!DOCTYPE svg PUBLIC "-//W3C//DTD SVG 20010904//EN"
 "http://www.w3.org/TR/2001/REC-SVG-20010904/DTD/svg10.dtd">
<svg version="1.0" xmlns="http://www.w3.org/2000/svg"
 width="184.000000pt" height="171.000000pt" viewBox="0 0 184.000000 171.000000"
 preserveAspectRatio="xMidYMid meet">

<g transform="translate(0.000000,171.000000) scale(0.100000,-0.100000)"
fill="#000000" stroke="none">
<path d="M1075 1643 c-211 -49 -398 -98 -430 -113 l-40 -18 100 -1 c163 -2
445 -67 695 -160 65 -25 89 -50 65 -67 -8 -6 -15 -16 -15 -21 0 -5 -11 -23
-24 -38 -18 -20 -22 -34 -17 -49 14 -37 44 -30 90 19 44 47 66 53 85 23 8 -13
5 -31 -10 -75 -24 -65 -18 -97 20 -107 36 -10 42 -7 55 29 8 23 35 53 79 89
90 71 103 88 109 134 12 86 -73 181 -198 221 -41 13 -121 44 -178 68 -58 25
-125 51 -150 59 -43 13 -191 17 -236 7z"/>
<path d="M1115 1149 c-11 -7 -21 -13 -23 -15 -7 -5 -62 -147 -62 -160 0 -8 6
-14 14 -14 7 0 39 -12 71 -26 50 -23 65 -26 124 -20 59 6 70 10 99 41 17 19
32 45 32 58 0 13 5 28 11 34 19 19 -13 57 -68 83 -55 27 -166 37 -198 19z"/>
<path d="M435 1118 c-29 -29 -34 -40 -37 -88 l-3 -55 55 -27 c66 -32 83 -33
135 -9 55 25 75 47 75 82 0 74 -61 129 -143 129 -40 0 -53 -5 -82 -32z"/>
<path d="M780 899 c-19 -4 -43 -18 -52 -31 -10 -13 -22 -28 -28 -35 -7 -8 -2
-20 15 -39 41 -44 66 -91 63 -117 -4 -29 -47 -88 -100 -138 -43 -41 -50 -64
-15 -53 12 4 24 11 28 15 12 19 100 38 130 27 16 -5 36 -7 44 -4 8 3 15 1 15
-4 0 -6 15 -10 33 -10 34 0 87 -19 87 -32 0 -4 30 -22 68 -40 37 -18 70 -37
74 -43 4 -5 8 -6 8 -1 0 5 11 0 24 -13 26 -25 82 -27 129 -4 15 7 27 10 27 6
0 -4 9 10 20 31 24 43 19 55 -33 79 -42 19 -111 32 -103 18 11 -17 -35 -33
-80 -28 -25 2 -58 15 -77 29 -18 14 -48 29 -67 33 -43 9 -60 22 -60 45 0 17
-38 40 -66 40 -9 0 -14 6 -11 13 2 6 0 20 -5 30 -14 27 26 89 79 121 25 15 42
30 37 34 -5 4 -23 20 -41 36 -36 32 -91 46 -143 35z"/>
<path d="M1547 864 c-3 -3 -3 -13 0 -21 3 -8 0 -19 -8 -24 -12 -8 -12 -10 0
-18 22 -14 5 -28 -41 -34 -23 -3 -44 -11 -46 -17 -2 -6 -16 -16 -31 -21 -24
-10 -25 -11 -8 -24 15 -11 11 -13 -38 -20 -71 -8 -67 -24 11 -47 72 -22 104
-22 151 -3 45 19 46 19 38 -5 -5 -15 0 -23 21 -32 l26 -12 -25 -7 c-29 -8
-109 5 -152 25 -48 22 -115 29 -115 12 0 -15 49 -36 82 -36 45 0 198 -44 218
-62 12 -11 23 -18 26 -15 11 11 8 256 -4 310 l-13 57 -43 0 c-23 0 -45 -3 -49
-6z"/>
<path d="M1345 559 c-9 -13 -8 -14 38 -33 21 -8 35 -11 32 -6 -8 13 26 13 45
0 12 -8 10 -10 -8 -10 -13 0 -20 -4 -17 -10 3 -5 22 -10 41 -10 l36 0 -29 23
c-64 51 -123 71 -138 46z"/>
<path d="M1030 550 c0 -5 7 -10 16 -10 8 0 12 5 9 10 -3 6 -10 10 -16 10 -5 0
-9 -4 -9 -10z"/>
<path d="M1590 478 c0 -4 -14 -8 -31 -8 -45 0 -26 -17 28 -25 28 -4 41 -10 34
-14 -10 -6 -9 -11 2 -22 8 -8 14 -25 13 -38 -1 -13 5 -26 12 -28 13 -5 19 52
13 127 -1 16 -71 24 -71 8z"/>
<path d="M515 440 c3 -5 8 -10 11 -10 2 0 4 5 4 10 0 6 -5 10 -11 10 -5 0 -7
-4 -4 -10z"/>
<path d="M1087 368 c-35 -6 -56 -15 -54 -22 8 -26 142 -13 142 14 0 19 -16 20
-88 8z"/>
<path d="M1601 298 c-5 -13 -7 -27 -5 -33 2 -5 -12 -21 -31 -34 -19 -13 -35
-28 -35 -32 0 -5 15 -22 32 -38 36 -32 58 -27 58 13 1 11 7 32 15 46 8 14 14
42 15 63 0 31 -3 37 -20 37 -12 0 -24 -9 -29 -22z"/>
<path d="M1630 103 c1 -12 79 -100 79 -88 0 6 -17 30 -39 53 -22 24 -40 40
-40 35z"/>
</g>
</svg>
